<svg version="1.1" id="Layer_1" xmlns="http://www.w3.org/2000/svg" xmlns:xlink="http://www.w3.org/1999/xlink" x="0px" y="0px"
	 width="100%" viewBox="0 0 300 300" enable-background="new 0 0 300 300" xml:space="preserve">
<path fill="#141414" opacity="1.000000" stroke="none" 
	d="
M202.000000,301.000000 
	C134.666672,301.000000 67.833359,301.000000 1.000027,301.000000 
	C1.000018,201.000031 1.000018,101.000061 1.000009,1.000067 
	C100.999947,1.000045 200.999893,1.000045 300.999878,1.000022 
	C300.999939,100.999939 300.999939,200.999878 300.999969,300.999908 
	C268.166656,301.000000 235.333328,301.000000 202.000000,301.000000 
M160.348282,203.192596 
	C157.567978,205.164642 154.787659,207.136688 151.292694,209.034515 
	C135.991074,199.379669 120.681732,189.737030 105.391418,180.064316 
	C98.728035,175.849030 92.103691,171.572021 85.261528,167.195053 
	C84.824356,168.272171 84.494926,168.705902 84.494186,169.140182 
	C84.466789,185.276733 84.391151,201.414322 84.594482,217.548325 
	C84.614067,219.102921 86.027451,221.193665 87.407883,222.094208 
	C107.575592,235.250992 127.888283,248.185669 148.043121,261.361877 
	C150.510239,262.974792 152.061539,262.572754 154.215012,261.174347 
	C166.751480,253.033554 179.357010,244.999161 192.616592,236.822891 
	C195.456207,234.731827 198.295822,232.640747 201.834534,230.338638 
	C206.049454,227.716873 210.458618,225.349747 214.387360,222.352814 
	C216.047729,221.086243 217.622803,218.510529 217.658371,216.501907 
	C217.928268,201.262863 217.852371,186.016495 217.731674,170.773636 
	C217.720459,169.360489 216.649826,167.955734 215.886642,165.944702 
	C213.093613,164.152267 210.300583,162.359833 207.014343,160.093506 
	C180.546387,143.141434 154.078430,126.189354 127.802979,108.507996 
	C130.310059,106.471275 132.817154,104.434547 136.003845,102.220741 
	C141.336502,99.083519 146.669174,95.946297 152.313324,93.434647 
	C155.200378,95.300087 158.087433,97.165527 161.487579,99.465454 
	C179.751877,111.147903 198.016174,122.830360 216.667572,134.760422 
	C217.193604,133.142105 217.561172,132.535690 217.563400,131.927933 
	C217.622375,115.948837 217.688919,99.969292 217.580063,83.991013 
	C217.571854,82.787132 216.556213,81.155830 215.516266,80.467819 
	C210.811584,77.355331 205.929749,74.510605 200.830688,71.014496 
	C197.839523,69.058441 194.848343,67.102386 191.276352,64.799454 
	C179.002609,56.867138 166.786942,48.841515 154.381424,41.120949 
	C152.836258,40.159321 149.733963,39.939445 148.283600,40.853004 
	C130.026794,52.352581 111.941193,64.123962 93.179276,76.084984 
	C90.763023,77.910866 88.346771,79.736748 85.160469,81.944283 
	C84.844315,83.860687 84.269310,85.775063 84.254234,87.693832 
	C84.159958,99.690132 84.839836,111.735153 83.962486,123.668381 
	C83.328201,132.295547 86.366219,136.961533 93.647148,141.398224 
	C118.219788,156.371735 142.294449,172.162460 167.010132,188.099533 
	C169.753448,189.732407 172.496765,191.365265 174.957047,193.646439 
	C170.308243,196.769577 165.659454,199.892731 160.348282,203.192596 
z"/>
<path fill="#959595" opacity="1.000000" stroke="none" 
	d="
M166.559540,187.640701 
	C142.294449,172.162460 118.219788,156.371735 93.647148,141.398224 
	C86.366219,136.961533 83.328201,132.295547 83.962486,123.668381 
	C84.839836,111.735153 84.159958,99.690132 84.254234,87.693832 
	C84.269310,85.775063 84.844315,83.860687 85.675629,82.095596 
	C99.997353,91.243698 113.803917,100.240486 127.610481,109.237274 
	C154.078430,126.189354 180.546387,143.141434 207.026764,160.636078 
	C205.760681,162.203995 204.562531,163.354477 203.191086,164.235046 
	C190.997986,172.064056 178.774246,179.845337 166.559540,187.640701 
z"/>
<path fill="#C4C4C4" opacity="1.000000" stroke="none" 
	d="
M191.939194,236.928802 
	C179.357010,244.999161 166.751480,253.033554 154.215012,261.174347 
	C152.061539,262.572754 150.510239,262.974792 148.043121,261.361877 
	C127.888283,248.185669 107.575592,235.250992 87.407883,222.094208 
	C86.027451,221.193665 84.614067,219.102921 84.594482,217.548325 
	C84.391151,201.414322 84.466789,185.276733 84.494186,169.140182 
	C84.494926,168.705902 84.824356,168.272171 85.261528,167.195053 
	C92.103691,171.572021 98.728035,175.849030 105.391418,180.064316 
	C120.681732,189.737030 135.991074,199.379669 151.787933,209.375763 
	C161.796066,215.845093 171.383270,221.862122 180.786301,228.154388 
	C184.705948,230.777313 188.233414,233.986298 191.939194,236.928802 
z"/>
<path fill="#7B7B7B" opacity="1.000000" stroke="none" 
	d="
M93.811813,75.825844 
	C111.941193,64.123962 130.026794,52.352581 148.283600,40.853004 
	C149.733963,39.939445 152.836258,40.159321 154.381424,41.120949 
	C166.786942,48.841515 179.002609,56.867138 191.497681,65.288811 
	C188.842667,67.970856 186.072037,70.321693 183.070801,72.327515 
	C172.758041,79.219879 162.364563,85.991470 152.001831,92.809082 
	C146.669174,95.946297 141.336502,99.083519 135.361237,102.085091 
	C121.083015,93.241577 107.447411,84.533707 93.811813,75.825844 
z"/>
<path fill="#646464" opacity="1.000000" stroke="none" 
	d="
M201.111710,71.569458 
	C205.929749,74.510605 210.811584,77.355331 215.516266,80.467819 
	C216.556213,81.155830 217.571854,82.787132 217.580063,83.991013 
	C217.688919,99.969292 217.622375,115.948837 217.563400,131.927933 
	C217.561172,132.535690 217.193604,133.142105 216.667572,134.760422 
	C198.016174,122.830360 179.751877,111.147903 161.331573,98.922981 
	C166.481247,94.735741 171.752243,91.039154 177.100769,87.458351 
	C185.075714,82.119186 193.105347,76.861694 201.111710,71.569458 
z"/>
<path fill="#A8A8A8" opacity="1.000000" stroke="none" 
	d="
M216.071106,166.547058 
	C216.649826,167.955734 217.720459,169.360489 217.731674,170.773636 
	C217.852371,186.016495 217.928268,201.262863 217.658371,216.501907 
	C217.622803,218.510529 216.047729,221.086243 214.387360,222.352814 
	C210.458618,225.349747 206.049454,227.716873 201.300781,230.124817 
	C195.380951,226.351303 189.959549,222.843735 184.617126,219.219666 
	C176.718842,213.861832 168.876709,208.421219 161.010651,203.015869 
	C165.659454,199.892731 170.308243,196.769577 175.441498,193.328033 
	C185.342087,187.096786 194.815338,181.272156 204.148148,175.230591 
	C208.269241,172.562836 212.105515,169.455078 216.071106,166.547058 
z"/>
<path fill="#5B5B5B" opacity="1.000000" stroke="none" 
	d="
M93.495544,75.955414 
	C107.447411,84.533707 121.083015,93.241577 135.021423,102.173630 
	C132.817154,104.434547 130.310059,106.471275 127.706726,108.872635 
	C113.803917,100.240486 99.997353,91.243698 86.060654,81.904770 
	C88.346771,79.736748 90.763023,77.910866 93.495544,75.955414 
z"/>
<path fill="#6B6B6B" opacity="1.000000" stroke="none" 
	d="
M215.978882,166.245880 
	C212.105515,169.455078 208.269241,172.562836 204.148148,175.230591 
	C194.815338,181.272156 185.342087,187.096786 175.583023,193.003876 
	C172.496765,191.365265 169.753448,189.732407 166.784836,187.870117 
	C178.774246,179.845337 190.997986,172.064056 203.191086,164.235046 
	C204.562531,163.354477 205.760681,162.203995 207.273376,160.873016 
	C210.300583,162.359833 213.093613,164.152267 215.978882,166.245880 
z"/>
<path fill="#484848" opacity="1.000000" stroke="none" 
	d="
M200.971191,71.291977 
	C193.105347,76.861694 185.075714,82.119186 177.100769,87.458351 
	C171.752243,91.039154 166.481247,94.735741 161.075012,98.705734 
	C158.087433,97.165527 155.200378,95.300087 152.157578,93.121872 
	C162.364563,85.991470 172.758041,79.219879 183.070801,72.327515 
	C186.072037,70.321693 188.842667,67.970856 191.788086,65.462250 
	C194.848343,67.102386 197.839523,69.058441 200.971191,71.291977 
z"/>
<path fill="#787878" opacity="1.000000" stroke="none" 
	d="
M160.679474,203.104233 
	C168.876709,208.421219 176.718842,213.861832 184.617126,219.219666 
	C189.959549,222.843735 195.380951,226.351303 200.951233,230.230331 
	C198.295822,232.640747 195.456207,234.731827 192.277893,236.875854 
	C188.233414,233.986298 184.705948,230.777313 180.786301,228.154388 
	C171.383270,221.862122 161.796066,215.845093 152.145264,209.412872 
	C154.787659,207.136688 157.567978,205.164642 160.679474,203.104233 
z"/>
</svg>